# xmcd
#
# Track frame offsets:
#	150
#	14025
#	27592
#	45192
#	58387
#	71387
#	83907
#	101117
#	118210
#	130177
#	142967
#	158057
#	172584
#	188654
#	205722
#
# Disc length: 2891 seconds
#
# Revision: 1
# Processed by: cddbd v1.5.2PL0 Copyright (c) Steve Scherf et al.
# Submitted via: audiograbber 1.82.02
#
DISCID=c90b490f
DTITLE=Various Artist - Country Forever Best
DYEAR=1999
DGENRE=Country
TTITLE0=Dwight Yoakam - Guitars,Cadillacs
TTITLE1=Linda Ronstadt - I Will Always Love You 
TTITLE2=Emmylou Harris - Together Again
TTITLE3=David Ball - No More Lonely
TTITLE4=Michael Martin Murphy - Devil Woman
TTITLE5=Faith Hill - Wild One
TTITLE6=Rodney Crowell - (Viila An)American Dream
TTITLE7=Claudia Church - What's the Matter with You Baby
TTITLE8=Willie Nelson - Shotgun Willie
TTITLE9=Dwight Yoakam - Streets of Bakersfield
TTITLE10=The Nitty Gritty Dirt Band - Long Hard Roard
TTITLE11=John Michael Montgomery - Cowboy Love 
TTITLE12=Randy Travis - Foever and Ever,Amen
TTITLE13=Southern Pacific - New Shade of Blue
TTITLE14=Emmylou Harris - Tennessee Waltz
EXTD=
EXTT0=
EXTT1=
EXTT2=
EXTT3=
EXTT4=
EXTT5=
EXTT6=
EXTT7=
EXTT8=
EXTT9=
EXTT10=
EXTT11=
EXTT12=
EXTT13=
EXTT14=
PLAYORDER=
